 http://img806.imageshack.us/img806/2586/theclinic2010.jpg

Country.......: Australia
Genre.........: Horror, Thriller, Crime
Date release..: 25.07.2010 [World]
Director......: James Rabbitts
Writers.......: James Rabbitts
Duration......: 90 min.
More..........: http://www.imdb.com/title/tt1345772
Trailer.......: http://www.imdb.com/video/screenplay/vi2035719449
Trailer.......:

Pilot :
While traveling across country with her fiancé, Beth wakes alone in an isolated clinic to a mother's worst nightmare. Just how far will she go to save her child? 

Cats :
Tabrett Bethell   	 ...  	Beth
Freya Stafford 	... 	Veronica
Andy Whitfield 	... 	Cameron
Clare Bowen 	... 	Ivy
Sophie Lowe 	... 	Allison
Boris Brkic 	... 	Hank
Marshall Napier 	... 	Officer Underwood
Elizabeth Alexander 	... 	Ms Shepard
Marcel Bracks 	... 	Duncan
Adrienne Pickering 	... 	Jane Doe
Slava Orel 	... 	
BorisAnni Finsterer 		
Harold Hopkins 	... 	Chester
Bob Marcs 	... 	Police Officer #1
Laurence Fleming 	... 	Beth's Father 

Data Technical :
!!! SAMPLE !!!
Audio.....: Lector Polish
Subtitles.: None
Format                           : AVI
Format/Info                      : Audio Video Interleave
File size                        : 697 MiB
Duration                         : 1h 29mn
Overall bit rate                 : 1 087 Kbps
Writing application              : VirtualDubMod 1.5.10.2 (build 2540/release)
Writing library                  : VirtualDubMod build 2540/release
Video
ID                               : 0
Format                           : MPEG-4 Visual
Format profile                   : Advanced Simple@L5
Format settings, BVOP            : Yes
Format settings, QPel            : No
Format settings, GMC             : No warppoints
Format settings, Matrix          : Default (H.263)
Codec ID                         : XVID
Codec ID/Hint                    : XviD
Duration                         : 1h 29mn
Bit rate                         : 949 Kbps
Width                            : 640 pixels
Height                           : 272 pixels
Display aspect ratio             : 2.35:1
Frame rate                       : 25.000 fps
Color space                      : YUV
Chroma subsampling               : 4:2:0
Bit depth                        : 8 bits
Scan type                        : Progressive
Bits/(Pixel*Frame)               : 0.218
Stream size                      : 608 MiB (87%)
Writing library                  : XviD 1.2.1 (UTC 2008-12-04)
Audio
ID                               : 1
Format                           : MPEG Audio
Format version                   : Version 1
Format profile                   : Layer 3
Mode                             : Joint stereo
Codec ID                         : 55
Codec ID/Hint                    : MP3
Duration                         : 1h 29mn
Bit rate mode                    : Constant
Bit rate                         : 128 Kbps
Channel(s)                       : 2 channels
Sampling rate                    : 48.0 KHz
Video delay                      : 1s 320ms
Stream size                      : 82.0 MiB (12%)
Alignment                        : Split accross interleaves
Interleave, duration             : 40 ms (1.00 video frame)
Interleave, preload duration     : 504 ms

Screen : 
http://img849.imageshack.us/img849/1751/theclinic2010s1.jpg 
http://img856.imageshack.us/img856/1463/theclinic2010s2.jpg 
http://img820.imageshack.us/img820/4987/theclinic2010s3.jpg 
http://img17.imageshack.us/img17/7610/theclinic2010s4.jpg 
http://img851.imageshack.us/img851/5705/theclinic2010s5.jpg